<svg id="Group_284" data-name="Group 284" xmlns="http://www.w3.org/2000/svg" width="33.698" height="31.153" viewBox="0 0 33.698 31.153">
  <path id="Path_1425" data-name="Path 1425" d="M1805.13-153.974a3.759,3.759,0,0,1-2.152-.679,3.744,3.744,0,0,1-1.557-2.435,3.752,3.752,0,0,1,.617-2.83,3.747,3.747,0,0,1,2.435-1.558,17.54,17.54,0,0,0,13.387-11.508,3.808,3.808,0,0,1,1.964-2.2,3.691,3.691,0,0,1,2.848-.155,3.787,3.787,0,0,1,2.347,4.8,25.049,25.049,0,0,1-19.206,16.494A3.806,3.806,0,0,1,1805.13-153.974Zm16.306-20.274a2.436,2.436,0,0,0-1.052.242,2.51,2.51,0,0,0-1.3,1.449A18.841,18.841,0,0,1,1804.7-160.2h0a2.455,2.455,0,0,0-1.595,1.02,2.466,2.466,0,0,0-.4,1.858,2.447,2.447,0,0,0,1.019,1.6,2.456,2.456,0,0,0,1.86.405,23.747,23.747,0,0,0,18.208-15.64,2.457,2.457,0,0,0-1.55-3.153A2.377,2.377,0,0,0,1821.436-174.248Z" transform="translate(-1791.662 185.127)" fill="#fff"/>
  <path id="Path_1426" data-name="Path 1426" d="M1832.694-123.525a.651.651,0,0,1-.637-.523,7.815,7.815,0,0,0-.5-1.554.651.651,0,0,1,.343-.854.653.653,0,0,1,.854.342,9.254,9.254,0,0,1,.576,1.812.651.651,0,0,1-.51.765A.662.662,0,0,1,1832.694-123.525Z" transform="translate(-1814.223 148.428)" fill="#fff"/>
  <path id="Path_1427" data-name="Path 1427" d="M1843.566-129.949a.651.651,0,0,1-.635-.509,9.906,9.906,0,0,0-.573-1.832.651.651,0,0,1,.335-.856.649.649,0,0,1,.857.335,11.3,11.3,0,0,1,.652,2.071.651.651,0,0,1-.494.776A.647.647,0,0,1,1843.566-129.949Z" transform="translate(-1822.301 153.437)" fill="#fff"/>
  <path id="Path_1428" data-name="Path 1428" d="M1852.57-138.078a.651.651,0,0,1-.64-.544,7.094,7.094,0,0,0-.6-1.858.65.65,0,0,1,.313-.865.653.653,0,0,1,.866.312,8.471,8.471,0,0,1,.7,2.2.651.651,0,0,1-.535.749A.687.687,0,0,1,1852.57-138.078Z" transform="translate(-1829.012 159.576)" fill="#fff"/>
  <path id="Path_1429" data-name="Path 1429" d="M1860.1-147.7a.651.651,0,0,1-.638-.529,9.544,9.544,0,0,0-.539-1.717.65.65,0,0,1,.363-.845.65.65,0,0,1,.845.362,10.766,10.766,0,0,1,.61,1.957.65.65,0,0,1-.518.761A.7.7,0,0,1,1860.1-147.7Z" transform="translate(-1834.701 166.631)" fill="#fff"/>
  <path id="Path_1430" data-name="Path 1430" d="M1791.463-106.566a.648.648,0,0,1-.559-.319,3.766,3.766,0,0,1-.145-4.121.65.65,0,0,1,.807-.252,16.09,16.09,0,0,1,2.533,1.6.649.649,0,0,1,.265.436.642.642,0,0,1-.131.493,5.962,5.962,0,0,1-2.565,2.13A.637.637,0,0,1,1791.463-106.566Zm.146-3.2a2.453,2.453,0,0,0,.142,1.686,5.335,5.335,0,0,0,1.02-.921C1792.361-109.289,1791.956-109.561,1791.609-109.768Z" transform="translate(-1783.321 137.055)" fill="#fff"/>
  <path id="Path_1431" data-name="Path 1431" d="M1879.821-182.076a.662.662,0,0,1-.186-.027.651.651,0,0,1-.393-.325,15.593,15.593,0,0,1-1.2-2.769.652.652,0,0,1,.387-.772,3.878,3.878,0,0,1,4.053.784.65.65,0,0,1,.175.8,5.809,5.809,0,0,1-2.519,2.227A.652.652,0,0,1,1879.821-182.076Zm-.311-2.847q.209.532.577,1.279a5.368,5.368,0,0,0,1.093-.874A2.486,2.486,0,0,0,1879.51-184.923Z" transform="translate(-1849.031 193.13)" fill="#fff"/>
  <path id="Path_1432" data-name="Path 1432" d="M1788.383-170.236a.649.649,0,0,1-.638-.534,3.745,3.745,0,0,1,.614-2.832,3.744,3.744,0,0,1,2.436-1.559,17.556,17.556,0,0,0,13.387-11.508,3.8,3.8,0,0,1,1.963-2.2,3.672,3.672,0,0,1,2.85-.156.65.65,0,0,1,.394.831.648.648,0,0,1-.832.394,2.385,2.385,0,0,0-1.851.1,2.51,2.51,0,0,0-1.3,1.448,18.861,18.861,0,0,1-14.383,12.362,2.453,2.453,0,0,0-1.6,1.021,2.463,2.463,0,0,0-.4,1.857.649.649,0,0,1-.522.756A.651.651,0,0,1,1788.383-170.236Z" transform="translate(-1781.427 195.368)" fill="#fff"/>
  <path id="Path_1433" data-name="Path 1433" d="M1819.013-137.207a.651.651,0,0,1-.636-.523,7.891,7.891,0,0,0-.5-1.555.65.65,0,0,1,.343-.853.652.652,0,0,1,.854.342,9.212,9.212,0,0,1,.574,1.812.651.651,0,0,1-.51.765A.659.659,0,0,1,1819.013-137.207Z" transform="translate(-1803.987 158.667)" fill="#fff"/>
  <path id="Path_1434" data-name="Path 1434" d="M1829.773-143.628a.65.65,0,0,1-.635-.509,7.662,7.662,0,0,0-.6-1.8.651.651,0,0,1,.29-.873.65.65,0,0,1,.873.291,8.822,8.822,0,0,1,.7,2.1.65.65,0,0,1-.494.776A.646.646,0,0,1,1829.773-143.628Z" transform="translate(-1811.952 163.673)" fill="#fff"/>
  <path id="Path_1435" data-name="Path 1435" d="M1838.889-151.762a.651.651,0,0,1-.641-.544,7.1,7.1,0,0,0-.6-1.856.649.649,0,0,1,.31-.865.649.649,0,0,1,.866.31,8.438,8.438,0,0,1,.705,2.2.65.65,0,0,1-.535.748A.6.6,0,0,1,1838.889-151.762Z" transform="translate(-1818.773 169.816)" fill="#fff"/>
  <path id="Path_1436" data-name="Path 1436" d="M1846.3-161.374a.65.65,0,0,1-.633-.5,8.719,8.719,0,0,0-.568-1.711.652.652,0,0,1,.315-.865.651.651,0,0,1,.863.315,9.948,9.948,0,0,1,.655,1.963.649.649,0,0,1-.484.782A.646.646,0,0,1,1846.3-161.374Z" transform="translate(-1824.351 176.866)" fill="#fff"/>
  <path id="Path_1437" data-name="Path 1437" d="M1777.766-120.245a.65.65,0,0,1-.564-.326,3.851,3.851,0,0,1-.186-4.1.652.652,0,0,1,.8-.272,12.636,12.636,0,0,1,2.6,1.613.648.648,0,0,1,.254.434.644.644,0,0,1-.132.486,5.96,5.96,0,0,1-2.565,2.13A.638.638,0,0,1,1777.766-120.245Zm.13-3.213a2.544,2.544,0,0,0,.162,1.694,5.321,5.321,0,0,0,1.024-.927A13.738,13.738,0,0,0,1777.9-123.458Z" transform="translate(-1773.067 147.291)" fill="#fff"/>
  <path id="Path_1438" data-name="Path 1438" d="M1866.142-195.754a.662.662,0,0,1-.186-.027.653.653,0,0,1-.392-.325,15.39,15.39,0,0,1-1.2-2.771.65.65,0,0,1,.381-.768,3.845,3.845,0,0,1,4.058.782.65.65,0,0,1,.169.811,6.135,6.135,0,0,1-2.511,2.214A.649.649,0,0,1,1866.142-195.754Zm-.312-2.85c.138.354.332.781.576,1.28a5.646,5.646,0,0,0,1.082-.877A2.517,2.517,0,0,0,1865.83-198.6Z" transform="translate(-1838.794 203.365)" fill="#fff"/>
  <path id="Path_1439" data-name="Path 1439" d="M1774.7-183.913a.651.651,0,0,1-.639-.535,3.753,3.753,0,0,1,.617-2.833,3.747,3.747,0,0,1,2.436-1.558,17.56,17.56,0,0,0,13.387-11.508,3.8,3.8,0,0,1,1.914-2.179,3.72,3.72,0,0,1,2.893-.174.651.651,0,0,1,.4.829.651.651,0,0,1-.829.4,2.42,2.42,0,0,0-1.889.113,2.509,2.509,0,0,0-1.26,1.439,18.865,18.865,0,0,1-14.384,12.362,2.447,2.447,0,0,0-1.6,1.021,2.46,2.46,0,0,0-.4,1.859.651.651,0,0,1-.524.756A.641.641,0,0,1,1774.7-183.913Z" transform="translate(-1771.186 205.604)" fill="#fff"/>
  <path id="Path_1440" data-name="Path 1440" d="M1805.294-150.89a.651.651,0,0,1-.636-.523,7.777,7.777,0,0,0-.457-1.554.65.65,0,0,1,.34-.854.65.65,0,0,1,.854.34,9.036,9.036,0,0,1,.539,1.812.651.651,0,0,1-.51.766A.665.665,0,0,1,1805.294-150.89Z" transform="translate(-1793.748 168.906)" fill="#fff"/>
  <path id="Path_1441" data-name="Path 1441" d="M1816.09-157.306a.651.651,0,0,1-.635-.509,7.566,7.566,0,0,0-.6-1.8.65.65,0,0,1,.29-.873.652.652,0,0,1,.873.29,8.838,8.838,0,0,1,.705,2.1.651.651,0,0,1-.494.776A.652.652,0,0,1,1816.09-157.306Z" transform="translate(-1801.711 173.908)" fill="#fff"/>
  <path id="Path_1442" data-name="Path 1442" d="M1825.209-165.439a.65.65,0,0,1-.635-.509,9.083,9.083,0,0,0-.6-1.892.65.65,0,0,1,.312-.865.653.653,0,0,1,.866.312,10.377,10.377,0,0,1,.7,2.163.65.65,0,0,1-.494.776A.65.65,0,0,1,1825.209-165.439Z" transform="translate(-1808.536 180.052)" fill="#fff"/>
  <path id="Path_1443" data-name="Path 1443" d="M1832.622-175.173a.65.65,0,0,1-.633-.5,10.22,10.22,0,0,0-.576-1.764.65.65,0,0,1,.334-.856.649.649,0,0,1,.857.336,11.411,11.411,0,0,1,.65,1.986.65.65,0,0,1-.484.782A.652.652,0,0,1,1832.622-175.173Z" transform="translate(-1814.111 187.222)" fill="#fff"/>
  <path id="Path_1444" data-name="Path 1444" d="M1764.085-133.925a.651.651,0,0,1-.564-.325,3.855,3.855,0,0,1-.188-4.1.655.655,0,0,1,.816-.266,13.959,13.959,0,0,1,2.583,1.608.648.648,0,0,1,.254.434.648.648,0,0,1-.131.486,5.961,5.961,0,0,1-2.565,2.13A.631.631,0,0,1,1764.085-133.925Zm.126-3.2a2.54,2.54,0,0,0,.166,1.685,5.363,5.363,0,0,0,1.021-.925C1764.9-136.719,1764.508-136.962,1764.211-137.129Z" transform="translate(-1762.828 157.528)" fill="#fff"/>
  <path id="Path_1445" data-name="Path 1445" d="M1852.462-209.435a.659.659,0,0,1-.186-.027.653.653,0,0,1-.393-.326,15.512,15.512,0,0,1-1.2-2.77.651.651,0,0,1,.379-.768,3.849,3.849,0,0,1,4.06.782.649.649,0,0,1,.154.838,6.481,6.481,0,0,1-2.5,2.188A.65.65,0,0,1,1852.462-209.435Zm-.311-2.85q.208.531.575,1.278a5.8,5.8,0,0,0,1.074-.881A2.536,2.536,0,0,0,1852.151-212.285Z" transform="translate(-1828.558 213.603)" fill="#fff"/>
</svg>
